<svg xmlns="http://www.w3.org/2000/svg" xmlns:xlink="http://www.w3.org/1999/xlink" version="1.1" x="0px" y="0px" viewBox="0 0 64 80" style="enable-background:new 0 0 64 64;" xml:space="preserve"><g><rect x="30" y="4" width="4" height="10"/><rect x="30" y="50" width="4" height="10"/><rect x="50" y="30" width="10" height="4"/><rect x="4" y="30" width="10" height="4"/><rect x="43.3" y="13.7" transform="matrix(0.7071 -0.7071 0.7071 0.7071 3.0085 38.7364)" width="10" height="4"/><rect x="10.7" y="46.3" transform="matrix(0.7071 -0.7071 0.7071 0.7071 -29.5182 25.2636)" width="10" height="4"/><rect x="46.3" y="43.3" transform="matrix(0.7071 -0.7071 0.7071 0.7071 -19.9914 48.2656)" width="4" height="10"/><rect x="13.7" y="10.7" transform="matrix(0.7071 -0.7071 0.7071 0.7071 -6.5182 15.7375)" width="4" height="10"/><path d="M32,18c-7.7,0-14,6.3-14,14s6.3,14,14,14s14-6.3,14-14S39.7,18,32,18z M32,42c-5.5,0-10-4.5-10-10s4.5-10,10-10   s10,4.5,10,10S37.5,42,32,42z"/></g><text x="0" y="79" fill="#000000" font-size="5px" font-weight="bold" font-family="'Helvetica Neue', Helvetica, Arial-Unicode, Arial, Sans-serif">Created by Mas Dhimas</text><text x="0" y="84" fill="#000000" font-size="5px" font-weight="bold" font-family="'Helvetica Neue', Helvetica, Arial-Unicode, Arial, Sans-serif">from the Noun Project</text></svg>